<?xml version="1.0" standalone="no"?>
<!DOCTYPE svg PUBLIC "-//W3C//DTD SVG 20010904//EN"
 "http://www.w3.org/TR/2001/REC-SVG-20010904/DTD/svg10.dtd">
<svg version="1.0" xmlns="http://www.w3.org/2000/svg"
 width="512.000000pt" height="515.000000pt" viewBox="0 0 512.000000 515.000000"
 preserveAspectRatio="xMidYMid meet">
<metadata>
Created by potrace 1.15, written by Peter Selinger 2001-2017
</metadata>
<g transform="translate(0.000000,515.000000) scale(0.100000,-0.100000)"
fill="#000000" stroke="none">
<path d="M2508 4810 c-20 -11 -57 -43 -82 -72 -82 -96 -311 -398 -302 -398 3
0 33 37 67 83 34 45 60 77 58 72 -9 -23 -123 -174 -170 -225 l-52 -55 48 60
c57 73 17 31 -125 -130 -322 -363 -799 -834 -1005 -993 -94 -72 -146 -116
-125 -106 8 4 4 -5 -9 -19 -14 -15 -27 -27 -29 -27 -3 0 3 9 13 20 10 11 14
20 8 20 -12 0 -50 -41 -43 -45 3 -2 1 -7 -4 -12 -5 -5 -6 -3 -2 5 12 21 -10
13 -30 -10 -19 -22 -19 -23 1 -8 15 11 14 7 -4 -13 -25 -28 -43 -38 -21 -12 7
8 8 15 2 15 -11 0 -29 -20 -32 -35 -1 -5 -4 -12 -7 -15 -4 -3 -3 1 1 8 4 6 3
12 -2 12 -12 0 -33 -25 -27 -32 3 -3 -3 -11 -12 -19 -16 -13 -17 -12 -4 4 7 9
9 17 3 17 -11 0 -38 -30 -35 -39 1 -3 -1 -8 -4 -11 -4 -3 -3 1 1 8 11 18 -9
15 -25 -5 -12 -15 -12 -16 1 -8 13 8 13 7 1 -8 -15 -19 -26 -23 -15 -6 4 7 1
10 -7 7 -8 -3 -14 -10 -14 -15 0 -6 -4 -15 -9 -20 -5 -5 -6 -3 -2 5 10 17 3
15 -38 -9 -20 -12 -34 -24 -31 -29 2 -4 -5 -16 -18 -26 l-22 -19 19 23 c11 12
15 22 9 22 -16 0 -179 -174 -185 -198 -9 -32 -1 -27 17 11 8 18 43 60 77 93
l62 59 -67 -73 c-86 -93 -87 -118 -13 -203 17 -19 7 -11 -21 18 -29 30 -53 51
-53 48 0 -10 112 -125 122 -125 5 0 6 6 2 13 -4 7 -3 9 2 4 5 -5 9 -14 9 -20
0 -5 6 -12 14 -15 9 -3 11 0 6 8 -5 9 -4 11 4 6 6 -4 9 -11 6 -16 -3 -5 20
-23 50 -40 30 -17 79 -53 107 -79 73 -65 130 -100 112 -69 -4 7 2 4 14 -6 26
-23 29 -34 4 -15 -14 11 -13 10 2 -9 20 -23 42 -31 30 -9 -4 6 2 3 14 -7 26
-23 29 -34 4 -15 -9 7 -4 -1 12 -19 17 -18 34 -32 39 -32 6 0 2 9 -8 20 -10
11 -16 20 -13 20 2 0 17 -14 34 -32 16 -18 20 -26 9 -18 -20 15 -20 14 -1 -8
19 -22 43 -31 31 -12 -10 16 1 11 16 -7 12 -15 12 -16 -1 -8 -13 8 -13 7 -1
-8 14 -18 36 -24 26 -7 -10 16 1 11 16 -7 10 -11 10 -14 2 -9 -31 18 -8 -5 49
-50 35 -27 94 -78 133 -114 38 -36 61 -55 51 -42 -32 37 -2 24 35 -15 23 -26
26 -31 9 -19 -14 11 -7 2 15 -19 332 -317 460 -444 537 -533 51 -59 125 -141
163 -182 80 -85 143 -163 277 -343 51 -68 103 -137 116 -153 42 -53 -71 110
-137 196 -36 47 -85 112 -110 145 -25 33 -80 96 -121 140 -42 44 -101 109
-132 145 -30 36 -75 86 -98 112 -23 27 -40 48 -37 48 3 0 47 -48 99 -107 51
-59 127 -143 168 -187 88 -94 159 -182 287 -356 50 -69 104 -140 119 -158 14
-18 24 -35 21 -39 -4 -3 -9 2 -13 11 -3 9 -11 16 -17 16 -5 0 -2 -9 8 -20 9
-10 22 -18 27 -17 6 1 13 -4 16 -12 3 -9 0 -11 -8 -6 -9 5 -11 4 -6 -4 4 -6
11 -9 16 -6 4 3 20 -15 34 -39 14 -25 38 -54 52 -65 15 -12 22 -21 17 -21 -11
0 -67 60 -91 96 -7 10 -6 6 2 -11 37 -78 139 -139 194 -116 35 15 117 98 164
166 43 64 50 75 45 75 -3 0 -21 -24 -40 -53 -19 -28 -67 -83 -106 -121 -66
-63 -74 -68 -103 -62 -18 4 -37 11 -43 17 -7 7 -1 7 18 0 16 -6 35 -11 43 -11
24 0 121 98 177 177 27 40 54 70 58 68 7 -5 54 48 98 112 42 62 13 33 -38 -38
-29 -39 -55 -68 -58 -65 -4 3 5 19 19 34 14 15 40 48 58 74 18 26 36 45 40 43
4 -2 22 15 41 38 18 23 60 71 93 107 l60 65 -67 -65 c-37 -36 -79 -82 -94
-103 -14 -20 -28 -35 -31 -32 -6 6 44 67 173 211 49 56 128 146 175 200 47 54
132 146 190 204 l104 105 -99 -106 c-55 -58 -135 -145 -177 -195 -43 -49 -100
-115 -128 -147 -27 -31 -50 -60 -50 -63 0 -14 27 15 98 104 74 94 610 640 742
756 36 32 58 54 50 50 -13 -7 -13 -5 -1 9 15 18 26 23 16 7 -14 -22 9 -6 97
68 51 42 127 103 168 134 205 157 237 182 265 211 17 17 21 24 10 17 -20 -15
-20 -14 -1 8 20 23 32 30 21 12 -11 -18 9 -10 55 21 25 16 66 41 91 54 64 33
135 116 143 167 7 44 -7 72 -78 146 -38 40 -65 56 -50 30 4 -8 3 -10 -2 -5 -5
5 -9 14 -9 20 0 5 -6 12 -14 15 -9 3 -11 0 -6 -9 5 -8 4 -11 -1 -6 -5 5 -9 14
-9 20 0 5 -6 12 -14 15 -9 3 -11 0 -6 -9 5 -8 4 -11 -1 -6 -5 5 -9 14 -9 20 0
5 -6 12 -14 15 -9 3 -11 0 -6 -9 5 -8 4 -11 -1 -6 -5 5 -9 14 -9 20 0 5 -6 12
-14 15 -9 3 -11 0 -5 -9 7 -12 5 -12 -9 0 -20 16 -23 26 -4 15 8 -5 8 -2 -2 9
-16 20 -36 23 -25 5 4 -8 3 -10 -2 -5 -5 5 -9 14 -9 20 0 7 -8 11 -17 11 -10
-1 -16 2 -15 6 2 8 -86 80 -98 80 -3 0 -3 -6 1 -12 4 -7 -2 -4 -14 6 -26 23
-29 34 -4 15 9 -7 6 -1 -7 14 -25 27 -48 37 -35 15 5 -9 2 -9 -9 1 -20 16 -23
26 -4 15 8 -5 8 -2 -2 9 -16 20 -36 23 -25 5 4 -7 -2 -4 -14 6 -26 23 -29 34
-4 15 9 -7 6 -1 -8 14 -13 15 -30 25 -37 23 -7 -3 -15 0 -19 6 -5 7 -2 8 7 3
12 -8 12 -6 0 8 -16 20 -36 23 -25 5 4 -7 -2 -4 -14 6 -26 23 -29 34 -4 15 13
-11 13 -9 -2 9 -11 12 -26 20 -33 18 -7 -3 -12 0 -10 6 1 6 -4 13 -12 16 -9 3
-11 0 -6 -9 4 -8 -15 8 -44 36 -28 27 -51 51 -51 54 0 3 21 -15 48 -39 41 -40
40 -38 -8 13 -50 52 -82 75 -64 45 5 -9 2 -9 -9 1 -20 16 -23 25 -4 15 6 -4
-24 26 -68 66 -98 90 -625 618 -718 720 l-68 75 63 -75 c35 -41 196 -209 358
-372 163 -164 293 -298 290 -298 -9 0 -588 588 -662 672 -65 73 -82 98 -56 82
6 -4 -18 28 -54 72 -36 43 -92 113 -124 155 -33 42 -95 123 -140 180 -44 57
-92 125 -107 150 -31 54 -84 103 -134 124 -44 19 -50 18 -95 -5z m120 -596
c67 -17 159 -65 215 -113 18 -14 57 -46 87 -69 245 -188 561 -473 677 -610 26
-31 91 -102 143 -158 53 -55 136 -152 185 -214 50 -62 108 -136 131 -164 53
-68 136 -191 163 -243 33 -67 29 -131 -16 -211 -58 -105 -139 -226 -191 -284
-26 -29 -70 -80 -97 -113 -207 -250 -570 -614 -770 -773 -66 -53 -144 -117
-173 -143 -63 -57 -186 -145 -279 -199 -59 -35 -75 -40 -131 -40 -50 0 -75 6
-124 31 -102 51 -204 124 -338 239 -369 319 -558 494 -724 672 -155 165 -167
180 -393 483 -82 111 -123 187 -123 232 0 142 167 378 524 742 310 316 493
489 636 604 52 42 124 100 160 130 36 30 115 88 177 130 138 93 154 98 261 71z"/>
<path d="M2414 4050 c-49 -33 -130 -92 -181 -132 -50 -40 -131 -104 -179 -143
-265 -211 -739 -697 -938 -963 -115 -152 -126 -174 -126 -255 0 -82 24 -136
103 -230 29 -34 68 -82 87 -107 44 -59 91 -110 349 -383 213 -226 399 -402
556 -527 44 -35 100 -82 125 -105 45 -42 135 -108 239 -177 44 -29 66 -38 101
-38 46 0 107 17 131 37 8 6 29 18 47 27 18 9 79 54 137 99 57 45 132 102 167
127 72 52 747 720 804 797 22 28 87 114 145 190 59 77 119 163 133 191 31 62
34 127 8 181 -22 44 -157 227 -281 381 -108 133 -575 601 -745 745 -212 181
-220 188 -309 253 -108 79 -140 92 -220 92 -61 0 -67 -2 -153 -60z m264 -597
c61 -170 121 -332 132 -360 l20 -53 -94 0 -95 0 6 -127 c12 -309 19 -549 15
-555 -2 -5 -52 -8 -111 -8 l-108 0 4 103 c13 343 19 573 16 580 -2 4 -38 7
-79 7 -41 0 -74 3 -74 8 0 4 33 102 73 217 41 116 95 274 122 353 26 78 51
142 54 142 4 0 57 -138 119 -307z m-506 -610 c54 -37 98 -70 98 -74 0 -4 -39
-19 -87 -34 -127 -39 -185 -69 -232 -120 -34 -36 -41 -52 -41 -84 0 -34 6 -45
43 -76 73 -64 188 -101 417 -134 119 -18 155 -19 305 -10 94 5 184 13 200 18
17 5 48 12 70 16 70 12 207 55 241 75 39 25 100 90 109 119 16 51 -56 130
-151 167 -36 14 -55 15 -104 7 -34 -5 -63 -6 -66 -1 -12 18 -62 178 -57 178 8
0 384 -100 403 -107 16 -6 13 -7 -33 -18 -29 -6 -28 -6 30 -44 70 -46 97 -74
118 -123 22 -55 19 -90 -15 -136 -106 -147 -386 -236 -805 -258 -141 -7 -284
4 -485 37 -163 27 -263 58 -385 122 -119 63 -175 124 -175 192 0 58 40 136 91
177 97 80 308 178 384 178 20 0 60 -21 127 -67z m519 -1033 c9 -190 14 -347
10 -350 -3 -3 -73 -4 -155 -2 l-148 4 6 61 c3 34 11 192 18 350 l11 288 121
-3 121 -3 16 -345z"/>
</g>
</svg>
